<?xml version="1.0" standalone="no"?>
<!DOCTYPE svg PUBLIC "-//W3C//DTD SVG 20010904//EN"
 "http://www.w3.org/TR/2001/REC-SVG-20010904/DTD/svg10.dtd">
<svg version="1.0" xmlns="http://www.w3.org/2000/svg"
 width="512.000000pt" height="512.000000pt" viewBox="0 0 512.000000 512.000000"
 preserveAspectRatio="xMidYMid meet">
<metadata>
Created by potrace 1.16, written by Peter Selinger 2001-2019
</metadata>
<g transform="translate(0.000000,512.000000) scale(0.100000,-0.100000)"
fill="#000000" stroke="none">
<path d="M888 5045 c-94 -35 -181 -123 -213 -214 -8 -25 -15 -73 -15 -108 l0
-63 -274 0 -273 0 -27 -26 -26 -27 0 -2247 0 -2247 26 -27 27 -26 2447 0 2447
0 27 26 26 27 0 2247 0 2247 -26 27 -27 26 -272 0 -273 0 -4 78 c-6 127 -77
235 -193 292 -43 22 -64 25 -155 25 -91 0 -112 -3 -155 -25 -116 -57 -187
-165 -193 -292 l-4 -78 -1198 0 -1198 0 -4 78 c-4 94 -32 157 -98 222 -71 72
-127 95 -240 97 -63 2 -108 -2 -132 -12z m194 -212 c16 -10 39 -34 51 -53 21
-33 22 -47 22 -220 0 -173 -1 -187 -22 -220 -28 -46 -71 -70 -123 -70 -52 0
-95 24 -123 70 -21 33 -22 47 -22 220 0 171 2 188 21 218 44 69 130 93 196 55z
m3100 0 c16 -10 39 -34 51 -53 21 -33 22 -47 22 -220 0 -173 -1 -187 -22 -220
-28 -46 -71 -70 -123 -70 -52 0 -95 24 -123 70 -21 33 -22 47 -22 220 0 171 2
188 21 218 44 69 130 93 196 55z m-3520 -450 c6 -128 77 -236 193 -293 43 -22
64 -25 155 -25 91 0 112 3 155 25 116 57 187 165 193 293 l4 77 1198 0 1198 0
4 -77 c6 -128 77 -236 193 -293 44 -22 63 -25 155 -25 91 0 112 4 155 25 115
56 186 164 193 293 l4 77 199 0 199 0 0 -300 0 -300 -2300 0 -2300 0 0 300 0
300 199 0 199 0 4 -77z m4198 -2423 l0 -1700 -2300 0 -2300 0 0 1700 0 1700
2300 0 2300 0 0 -1700z"/>
<path d="M1386 3234 c-21 -21 -26 -36 -26 -74 0 -38 5 -53 26 -74 25 -25 32
-26 124 -26 92 0 99 1 124 26 37 38 37 110 0 148 -25 25 -32 26 -124 26 -92 0
-99 -1 -124 -26z"/>
<path d="M2086 3234 c-21 -21 -26 -36 -26 -74 0 -38 5 -53 26 -74 25 -25 32
-26 124 -26 92 0 99 1 124 26 37 38 37 110 0 148 -25 25 -32 26 -124 26 -92 0
-99 -1 -124 -26z"/>
<path d="M2786 3234 c-21 -21 -26 -36 -26 -74 0 -38 5 -53 26 -74 25 -25 32
-26 124 -26 92 0 99 1 124 26 21 21 26 36 26 74 0 38 -5 53 -26 74 -25 25 -32
26 -124 26 -92 0 -99 -1 -124 -26z"/>
<path d="M3486 3234 c-21 -21 -26 -36 -26 -74 0 -38 5 -53 26 -74 25 -25 32
-26 124 -26 92 0 99 1 124 26 21 21 26 36 26 74 0 38 -5 53 -26 74 -25 25 -32
26 -124 26 -92 0 -99 -1 -124 -26z"/>
<path d="M4186 3234 c-21 -21 -26 -36 -26 -74 0 -38 5 -53 26 -74 25 -25 32
-26 124 -26 92 0 99 1 124 26 21 21 26 36 26 74 0 38 -5 53 -26 74 -25 25 -32
26 -124 26 -92 0 -99 -1 -124 -26z"/>
<path d="M686 2634 c-37 -38 -37 -110 0 -148 25 -25 32 -26 124 -26 92 0 99 1
124 26 37 38 37 110 0 148 -25 25 -32 26 -124 26 -92 0 -99 -1 -124 -26z"/>
<path d="M1386 2634 c-21 -21 -26 -36 -26 -74 0 -38 5 -53 26 -74 25 -25 32
-26 124 -26 92 0 99 1 124 26 37 38 37 110 0 148 -25 25 -32 26 -124 26 -92 0
-99 -1 -124 -26z"/>
<path d="M2086 2634 c-21 -21 -26 -36 -26 -74 0 -38 5 -53 26 -74 25 -25 32
-26 124 -26 92 0 99 1 124 26 37 38 37 110 0 148 -25 25 -32 26 -124 26 -92 0
-99 -1 -124 -26z"/>
<path d="M2786 2634 c-21 -21 -26 -36 -26 -74 0 -38 5 -53 26 -74 25 -25 32
-26 124 -26 92 0 99 1 124 26 21 21 26 36 26 74 0 38 -5 53 -26 74 -25 25 -32
26 -124 26 -92 0 -99 -1 -124 -26z"/>
<path d="M3486 2634 c-21 -21 -26 -36 -26 -74 0 -38 5 -53 26 -74 25 -25 32
-26 124 -26 92 0 99 1 124 26 21 21 26 36 26 74 0 38 -5 53 -26 74 -25 25 -32
26 -124 26 -92 0 -99 -1 -124 -26z"/>
<path d="M4186 2634 c-21 -21 -26 -36 -26 -74 0 -38 5 -53 26 -74 25 -25 32
-26 124 -26 92 0 99 1 124 26 21 21 26 36 26 74 0 38 -5 53 -26 74 -25 25 -32
26 -124 26 -92 0 -99 -1 -124 -26z"/>
<path d="M686 2034 c-37 -38 -37 -110 0 -148 25 -25 32 -26 124 -26 92 0 99 1
124 26 37 38 37 110 0 148 -25 25 -32 26 -124 26 -92 0 -99 -1 -124 -26z"/>
<path d="M1386 2034 c-21 -21 -26 -36 -26 -74 0 -38 5 -53 26 -74 25 -25 32
-26 124 -26 92 0 99 1 124 26 37 38 37 110 0 148 -25 25 -32 26 -124 26 -92 0
-99 -1 -124 -26z"/>
<path d="M2086 2034 c-21 -21 -26 -36 -26 -74 0 -38 5 -53 26 -74 25 -25 32
-26 124 -26 92 0 99 1 124 26 37 38 37 110 0 148 -25 25 -32 26 -124 26 -92 0
-99 -1 -124 -26z"/>
<path d="M2786 2034 c-21 -21 -26 -36 -26 -74 0 -38 5 -53 26 -74 25 -25 32
-26 124 -26 92 0 99 1 124 26 21 21 26 36 26 74 0 38 -5 53 -26 74 -25 25 -32
26 -124 26 -92 0 -99 -1 -124 -26z"/>
<path d="M3486 2034 c-21 -21 -26 -36 -26 -74 0 -38 5 -53 26 -74 25 -25 32
-26 124 -26 92 0 99 1 124 26 21 21 26 36 26 74 0 38 -5 53 -26 74 -25 25 -32
26 -124 26 -92 0 -99 -1 -124 -26z"/>
<path d="M4186 2034 c-21 -21 -26 -36 -26 -74 0 -38 5 -53 26 -74 25 -25 32
-26 124 -26 92 0 99 1 124 26 21 21 26 36 26 74 0 38 -5 53 -26 74 -25 25 -32
26 -124 26 -92 0 -99 -1 -124 -26z"/>
<path d="M686 1434 c-37 -38 -37 -110 0 -148 25 -25 32 -26 124 -26 92 0 99 1
124 26 37 38 37 110 0 148 -25 25 -32 26 -124 26 -92 0 -99 -1 -124 -26z"/>
<path d="M1386 1434 c-21 -21 -26 -36 -26 -74 0 -38 5 -53 26 -74 25 -25 32
-26 124 -26 92 0 99 1 124 26 37 38 37 110 0 148 -25 25 -32 26 -124 26 -92 0
-99 -1 -124 -26z"/>
<path d="M2086 1434 c-21 -21 -26 -36 -26 -74 0 -38 5 -53 26 -74 25 -25 32
-26 124 -26 92 0 99 1 124 26 37 38 37 110 0 148 -25 25 -32 26 -124 26 -92 0
-99 -1 -124 -26z"/>
<path d="M2786 1434 c-21 -21 -26 -36 -26 -74 0 -38 5 -53 26 -74 25 -25 32
-26 124 -26 92 0 99 1 124 26 21 21 26 36 26 74 0 38 -5 53 -26 74 -25 25 -32
26 -124 26 -92 0 -99 -1 -124 -26z"/>
<path d="M3486 1434 c-21 -21 -26 -36 -26 -74 0 -38 5 -53 26 -74 25 -25 32
-26 124 -26 92 0 99 1 124 26 21 21 26 36 26 74 0 38 -5 53 -26 74 -25 25 -32
26 -124 26 -92 0 -99 -1 -124 -26z"/>
<path d="M4186 1434 c-21 -21 -26 -36 -26 -74 0 -38 5 -53 26 -74 25 -25 32
-26 124 -26 92 0 99 1 124 26 21 21 26 36 26 74 0 38 -5 53 -26 74 -25 25 -32
26 -124 26 -92 0 -99 -1 -124 -26z"/>
<path d="M686 834 c-37 -38 -37 -110 0 -148 25 -25 32 -26 124 -26 92 0 99 1
124 26 37 38 37 110 0 148 -25 25 -32 26 -124 26 -92 0 -99 -1 -124 -26z"/>
<path d="M1386 834 c-21 -21 -26 -36 -26 -74 0 -38 5 -53 26 -74 25 -25 32
-26 124 -26 92 0 99 1 124 26 37 38 37 110 0 148 -25 25 -32 26 -124 26 -92 0
-99 -1 -124 -26z"/>
<path d="M2086 834 c-21 -21 -26 -36 -26 -74 0 -38 5 -53 26 -74 25 -25 32
-26 124 -26 92 0 99 1 124 26 37 38 37 110 0 148 -25 25 -32 26 -124 26 -92 0
-99 -1 -124 -26z"/>
<path d="M2786 834 c-21 -21 -26 -36 -26 -74 0 -38 5 -53 26 -74 25 -25 32
-26 124 -26 92 0 99 1 124 26 21 21 26 36 26 74 0 38 -5 53 -26 74 -25 25 -32
26 -124 26 -92 0 -99 -1 -124 -26z"/>
</g>
</svg>
