<?xml version="1.0" standalone="no"?>
<!DOCTYPE svg PUBLIC "-//W3C//DTD SVG 20010904//EN"
 "http://www.w3.org/TR/2001/REC-SVG-20010904/DTD/svg10.dtd">
<svg version="1.0" xmlns="http://www.w3.org/2000/svg"
 width="512.000000pt" height="512.000000pt" viewBox="0 0 512.000000 512.000000"
 preserveAspectRatio="xMidYMid meet">
<metadata>
Created by potrace 1.16, written by Peter Selinger 2001-2019
</metadata>
<g transform="translate(0.000000,512.000000) scale(0.100000,-0.100000)"
fill="#000000" stroke="none">
<path d="M1192 4940 c-59 -36 -72 -71 -72 -192 l0 -108 -143 0 c-159 0 -225
-12 -322 -60 -143 -70 -261 -207 -309 -360 l-26 -81 0 -1732 c0 -1901 -4
-1782 60 -1912 66 -136 202 -257 346 -306 l69 -24 1765 0 1765 0 69 24 c144
49 280 170 346 306 64 130 60 11 60 1905 0 1894 4 1775 -60 1905 -65 134 -200
255 -341 305 -54 20 -89 24 -231 28 l-168 4 0 107 c0 120 -13 155 -72 191 -45
27 -131 27 -176 0 -59 -36 -72 -71 -72 -192 l0 -108 -480 0 -480 0 0 108 c0
121 -13 156 -72 192 -45 27 -131 27 -176 0 -59 -36 -72 -71 -72 -192 l0 -108
-480 0 -480 0 0 108 c0 89 -3 112 -20 140 -30 48 -75 72 -140 72 -37 0 -66 -6
-88 -20z m-72 -727 c0 -122 13 -157 72 -193 45 -27 131 -27 176 0 59 36 72 71
72 193 l0 107 480 0 480 0 0 -107 c0 -122 13 -157 72 -193 45 -27 131 -27 176
0 59 36 72 71 72 193 l0 107 480 0 480 0 0 -107 c0 -122 13 -157 72 -193 45
-27 131 -27 176 0 59 36 72 71 72 194 l0 109 123 -6 c67 -3 138 -11 157 -18
85 -30 150 -96 181 -184 21 -60 21 -3370 0 -3430 -32 -90 -97 -155 -186 -186
-60 -21 -3370 -21 -3430 0 -58 20 -118 64 -146 108 -57 87 -54 -28 -57 1748
-2 1006 1 1664 7 1702 12 77 35 127 81 173 66 66 135 87 298 89 l92 1 0 -107z"/>
<path d="M2010 3349 c-14 -5 -112 -96 -217 -202 l-193 -191 -117 116 c-128
126 -165 146 -241 132 -53 -10 -117 -76 -127 -131 -13 -79 3 -103 199 -301 99
-101 193 -190 208 -198 35 -18 121 -18 156 0 47 25 550 538 558 569 11 45 -1
122 -24 154 -39 55 -133 79 -202 52z"/>
<path d="M2632 3020 c-48 -30 -72 -75 -72 -140 0 -65 24 -110 72 -140 32 -19
52 -20 648 -20 596 0 616 1 648 20 48 30 72 75 72 140 0 65 -24 110 -72 140
-32 19 -52 20 -648 20 -596 0 -616 -1 -648 -20z"/>
<path d="M2010 1909 c-14 -5 -112 -96 -217 -202 l-193 -191 -117 116 c-128
126 -165 146 -241 132 -53 -10 -117 -76 -127 -131 -13 -79 3 -103 199 -301 99
-101 193 -190 208 -198 35 -18 121 -18 156 0 47 25 550 538 558 569 11 45 -1
122 -24 154 -39 55 -133 79 -202 52z"/>
<path d="M2632 1580 c-48 -30 -72 -75 -72 -140 0 -65 24 -110 72 -140 32 -19
52 -20 648 -20 596 0 616 1 648 20 48 30 72 75 72 140 0 65 -24 110 -72 140
-32 19 -52 20 -648 20 -596 0 -616 -1 -648 -20z"/>
</g>
</svg>
